<svg xmlns="http://www.w3.org/2000/svg" width="24" height="25" fill="none" stroke="#444" stroke-width="1.5" xmlns:v="https://vecta.io/nano"><g stroke-miterlimit="10" stroke-linecap="round" stroke-linejoin="round"><path d="M8.777 23h10.37c2.222 0 2.963-.741 2.963-2.963v-5.926h-2.017m1.111 0h-9.578"/><path d="M21.695 14.111c1.123 0 1.527-.6 1.527-1.333v-.667c0-.733-.405-1.333-1.527-1.333H9.332"/></g><path d="M11.371 6.576c1.667-1.111 3.519 1.852 3.889 3.333 0 0-1.11.555-2.778 0s-2.419-2.462-1.111-3.333zm8.329 0c-1.667-1.111-3.518 1.852-3.889 3.333 0 0 1.11.555 2.778 0s2.419-2.462 1.111-3.333z"/><path d="M5.904 8.556a.65.65 0 0 1 .205 0 2.77 2.77 0 0 0 2.67-2.778A2.77 2.77 0 0 0 6 3a2.78 2.78 0 0 0-2.778 2.778c.011 1.507 1.195 2.724 2.681 2.778z" stroke-linejoin="round"/><path d="M2.389 22.687C1.309 22.119 1 20.913 1 20.222v-5.556a5 5 0 1 1 10 0v5.556C11 20.913 11 23 8.778 23M6 9.667v7.778" stroke-linecap="round"/></svg>