<svg width="120" height="81" viewBox="0 0 120 81" fill="none" xmlns="http://www.w3.org/2000/svg">
<path d="M119.571 0.300781H0.0507812V26.7808H119.571V0.300781Z" fill="#FF9933"/>
<path d="M119.571 26.7808H0.0507812V53.9508H119.571V26.7808Z" fill="white"/>
<path d="M119.571 53.9609H0.0507812V80.451H119.571V53.9609Z" fill="#168902"/>
<path d="M59.8208 51.8706C66.1408 51.8706 71.2507 46.7306 71.2507 40.3806C71.2507 34.0306 66.1408 28.8906 59.8208 28.8906C53.5108 28.8906 48.3906 34.0406 48.3906 40.3806C48.3906 46.7306 53.5108 51.8706 59.8208 51.8706ZM64.2507 49.4706C64.1207 49.1406 63.7507 48.9806 63.4207 49.1206C63.0907 49.2606 62.9508 49.6306 63.0808 49.9606C62.8708 50.0306 62.6707 50.1006 62.4707 50.1406L61.2007 44.1806L60.5107 42.3106C60.5807 42.2906 60.6307 42.2706 60.6807 42.2406L61.5208 44.0306L64.8008 49.1506C64.6308 49.2706 64.4407 49.3606 64.2507 49.4706ZM66.4307 48.0006C66.2207 47.7206 65.8208 47.6706 65.5408 47.8906C65.2808 48.1106 65.2107 48.5106 65.4407 48.7906C65.2707 48.9006 65.0806 49.0206 64.8906 49.1306L62.1306 43.7006L61.0007 42.0706C61.0507 42.0406 61.1106 42.0006 61.1506 41.9606L62.4207 43.4806L66.9006 47.5706C66.7606 47.7206 66.6007 47.8606 66.4307 48.0006ZM68.1707 46.0106C67.9007 45.8006 67.5008 45.8506 67.2908 46.1406C67.0708 46.4106 67.1306 46.8106 67.4006 47.0306C67.2606 47.1906 67.1207 47.3506 66.9807 47.5006L62.9106 42.9706L61.4006 41.7006C61.4306 41.6506 61.4807 41.6006 61.5107 41.5606L63.1208 42.6906L68.5308 45.4706C68.4108 45.6606 68.3007 45.8406 68.1707 46.0106ZM69.3508 43.6506C69.0308 43.5206 68.6508 43.6706 68.5208 44.0006C68.3808 44.3306 68.5308 44.7006 68.8708 44.8306C68.7708 45.0206 68.6708 45.2106 68.5708 45.4006L63.4807 42.0806L61.6807 41.2506C61.7007 41.1906 61.7207 41.1406 61.7607 41.0806L63.6208 41.7606L69.5508 43.0306C69.4808 43.2506 69.4108 43.4506 69.3508 43.6506ZM69.8608 41.0606C69.5108 41.0206 69.2006 41.2606 69.1406 41.6106C69.1106 41.9606 69.3507 42.2806 69.7107 42.3406C69.6707 42.5506 69.6108 42.7506 69.5608 42.9606L63.7808 41.0906L61.8408 40.7406C61.8508 40.6806 61.8608 40.6206 61.8608 40.5606L63.8308 40.7306L69.8906 40.4306C69.8906 40.6306 69.8808 40.8506 69.8608 41.0606ZM69.7107 38.4206C69.3507 38.4706 69.1106 38.7906 69.1406 39.1406C69.1906 39.5006 69.5108 39.7406 69.8608 39.6906C69.8808 39.9006 69.8906 40.1106 69.8906 40.3306L63.8308 40.0106L61.8608 40.1906C61.8608 40.1306 61.8508 40.0706 61.8408 40.0106L63.7808 39.6606L69.5608 37.7906C69.6108 38.0106 69.6607 38.2206 69.7107 38.4206ZM68.8708 35.9206C68.5308 36.0606 68.3808 36.4306 68.5208 36.7606C68.6508 37.0906 69.0308 37.2406 69.3508 37.1106C69.4208 37.3106 69.4808 37.5106 69.5508 37.7206L63.6208 39.0006L61.7607 39.6706C61.7307 39.6106 61.7107 39.5606 61.6807 39.5006L63.4807 38.6606L68.5708 35.3506C68.6708 35.5406 68.7708 35.7306 68.8708 35.9206ZM67.4006 33.7206C67.1306 33.9306 67.0708 34.3406 67.2908 34.6106C67.5008 34.8906 67.9007 34.9506 68.1707 34.7306C68.3007 34.9006 68.4108 35.0906 68.5208 35.2706L63.1108 38.0406L61.5007 39.1806C61.4707 39.1406 61.4206 39.0906 61.3906 39.0406L62.9006 37.7606L66.9707 33.2506C67.1207 33.4106 67.2606 33.5606 67.4006 33.7206ZM65.4407 31.9706C65.2107 32.2506 65.2808 32.6506 65.5408 32.8706C65.8208 33.0906 66.2307 33.0306 66.4307 32.7506C66.5907 32.8906 66.7606 33.0306 66.9006 33.1806L62.4207 37.2706L61.1506 38.7906C61.1106 38.7506 61.0507 38.7206 61.0007 38.6806L62.1306 37.0606L64.8906 31.6306C65.0806 31.7406 65.2707 31.8506 65.4407 31.9706ZM63.0808 30.8006C62.9508 31.1306 63.0907 31.5106 63.4207 31.6406C63.7507 31.7706 64.1207 31.6206 64.2507 31.2906C64.4507 31.3806 64.6308 31.4906 64.8208 31.5906L61.5408 36.7006L60.7007 38.5106C60.6507 38.4806 60.5908 38.4606 60.5308 38.4406L61.2207 36.5706L62.4907 30.6106C62.6707 30.6706 62.8808 30.7306 63.0808 30.8006ZM60.4907 30.2706C60.4607 30.6206 60.7008 30.9406 61.0408 30.9906C61.3908 31.0406 61.7007 30.7906 61.7507 30.4506C61.9607 30.4906 62.1606 30.5406 62.3806 30.5906L60.5107 36.3906L60.1606 38.3506C60.1206 38.3306 60.0507 38.3306 60.0007 38.3306L60.1606 36.3506L59.8608 30.2606C60.0808 30.2506 60.3007 30.2706 60.4907 30.2706ZM60.1707 44.4106L60.0107 42.4406C60.0607 42.4306 60.1307 42.4306 60.1707 42.4206L60.5208 44.3706L62.3906 50.1706C62.1706 50.2206 61.9707 50.2706 61.7607 50.3206C61.7207 49.9706 61.4008 49.7206 61.0508 49.7706C60.7008 49.8106 60.4607 50.1406 60.5007 50.4906C60.3007 50.5106 60.0908 50.5106 59.8708 50.5106L60.1707 44.4106ZM54.1907 48.7906C54.4107 48.5106 54.3508 48.1006 54.0708 47.8906C53.8108 47.6706 53.4107 47.7306 53.1907 48.0006C53.0307 47.8606 52.8707 47.7206 52.7207 47.5706L57.2207 43.4806L58.4907 41.9606C58.5307 42.0006 58.5806 42.0406 58.6306 42.0706L57.5007 43.7006L54.7407 49.1306C54.5707 49.0206 54.3807 48.9006 54.1907 48.7906ZM56.5608 49.9606C56.7008 49.6306 56.5507 49.2606 56.2207 49.1206C55.8907 48.9806 55.5206 49.1406 55.3806 49.4706C55.1906 49.3706 55.0108 49.2706 54.8108 49.1706L58.1108 44.0506L58.9607 42.2606C59.0107 42.2906 59.0608 42.3006 59.1208 42.3306L58.4307 44.2006L57.1606 50.1606C56.9606 50.0906 56.7508 50.0306 56.5608 49.9606ZM59.1306 50.4806C59.1706 50.1306 58.9308 49.8006 58.5908 49.7606C58.2408 49.7206 57.9208 49.9606 57.8708 50.3106C57.6608 50.2706 57.4607 50.2206 57.2507 50.1606L59.1208 44.3606L59.4607 42.4106C59.5307 42.4206 59.5806 42.4306 59.6306 42.4306L59.4707 44.4006L59.7708 50.4906C59.5708 50.5006 59.3506 50.5006 59.1306 50.4806ZM57.8708 30.4506C57.9108 30.8006 58.2408 31.0506 58.5908 30.9906C58.9408 30.9506 59.1806 30.6206 59.1306 30.2706C59.3506 30.2606 59.5708 30.2506 59.7708 30.2506L59.4707 36.3406L59.6306 38.3206C59.5806 38.3206 59.5207 38.3306 59.4607 38.3406L59.1208 36.3806L57.2507 30.5806C57.4607 30.5406 57.6708 30.4906 57.8708 30.4506ZM55.3806 31.2906C55.5206 31.6206 55.8907 31.7706 56.2207 31.6406C56.5507 31.5006 56.7008 31.1306 56.5608 30.8006C56.7608 30.7306 56.9607 30.6706 57.1707 30.6206L58.4407 36.5806L59.1306 38.4506C59.0606 38.4706 59.0207 38.4906 58.9707 38.5206L58.1208 36.7106L54.8208 31.6006C55.0108 31.4806 55.2006 31.3806 55.3806 31.2906ZM53.1907 32.7506C53.4107 33.0306 53.8108 33.0906 54.0708 32.8706C54.3508 32.6506 54.4107 32.2406 54.1907 31.9706C54.3807 31.8506 54.5607 31.7406 54.7507 31.6306L57.5107 37.0606L58.6406 38.6806C58.5906 38.7206 58.5407 38.7606 58.5007 38.7906L57.2307 37.2706L52.7307 33.1806C52.8807 33.0406 53.0307 32.9006 53.1907 32.7506ZM51.4507 34.7306C51.7407 34.9506 52.1208 34.8906 52.3508 34.6106C52.5608 34.3406 52.5007 33.9306 52.2307 33.7206C52.3607 33.5606 52.5007 33.4006 52.6707 33.2506L56.7307 37.7606L58.2507 39.0406C58.2007 39.0906 58.1606 39.1406 58.1306 39.1806L56.5208 38.0406L51.1108 35.2706C51.2308 35.0906 51.3307 34.9106 51.4507 34.7306ZM50.2908 37.1106C50.6208 37.2506 50.9908 37.0906 51.1208 36.7606C51.2608 36.4306 51.1108 36.0606 50.7808 35.9206C50.8808 35.7306 50.9808 35.5406 51.0708 35.3506L56.1707 38.6606L57.9407 39.5006C57.9207 39.5706 57.9006 39.6106 57.8906 39.6706L56.0408 39.0006L50.1008 37.7206C50.1608 37.5106 50.2208 37.3006 50.2908 37.1106ZM49.7708 39.6906C50.1208 39.7306 50.4407 39.4906 50.4807 39.1406C50.5307 38.7906 50.3007 38.4706 49.9407 38.4206C49.9807 38.2106 50.0408 38.0106 50.0908 37.8006L55.8608 39.6706L57.8008 40.0206C57.7908 40.0706 57.7908 40.1406 57.7808 40.2006L55.8208 40.0206L49.7607 40.3406C49.7507 40.1206 49.7608 39.9006 49.7708 39.6906ZM49.9307 42.3406C50.2907 42.2906 50.5307 41.9606 50.4707 41.6106C50.4407 41.2606 50.1107 41.0206 49.7607 41.0606C49.7507 40.8506 49.7407 40.6306 49.7407 40.4206L55.8008 40.7206L57.7607 40.5506C57.7707 40.6206 57.7708 40.6806 57.7808 40.7306L55.8408 41.0806L50.0708 42.9506C50.0308 42.7506 49.9707 42.5406 49.9307 42.3406ZM50.7808 44.8306C51.1108 44.6906 51.2608 44.3206 51.1208 44.0006C50.9908 43.6706 50.6208 43.5206 50.2908 43.6506C50.2208 43.4406 50.1608 43.2506 50.1108 43.0306L56.0508 41.7606L57.9006 41.0806C57.9106 41.1306 57.9307 41.1906 57.9507 41.2506L56.1807 42.0806L51.0808 45.4006C50.9708 45.2106 50.8808 45.0206 50.7808 44.8306ZM51.1208 45.4806L56.5308 42.7006L58.1406 41.5706C58.1706 41.6106 58.2007 41.6606 58.2607 41.7106L56.7407 42.9806L52.6807 47.5106C52.5207 47.3606 52.3807 47.2106 52.2407 47.0406C52.5107 46.8206 52.5708 46.4206 52.3608 46.1506C52.1308 45.8606 51.7507 45.8106 51.4607 46.0206C51.3307 45.8406 51.2308 45.6606 51.1208 45.4806Z" fill="#0900A0"/>
</svg>
