<svg xmlns="http://www.w3.org/2000/svg" width="24" height="25" viewBox="0 0 24 25" fill="none"><path stroke="#444" stroke-linejoin="round" stroke-width="1.5" d="M15 22.5H9c-5 0-7-2-7-7v-6c0-5 2-7 7-7h6c5 0 7 2 7 7v6c0 5-2 7-7 7z"/><mask id="a" width="9" height="15" x="7" y="5.502" fill="#000" maskUnits="userSpaceOnUse"><path fill="#fff" d="M7 5.502h9v15H7z"/><path d="m14.832 18.489-.541-.504-1.3-1.21-1.568-1.458-1.36-1.265-.661-.615.165.412v-.425l-.595.595h.867l.895-.003c1.318-.061 2.56-.822 3.173-1.999a3.76 3.76 0 0 0 .434-1.922 3.76 3.76 0 0 0-.593-1.859 3.8 3.8 0 0 0-1.422-1.302 3.8 3.8 0 0 0-1.749-.431H8.595c-.311 0-.609.273-.595.595s.262.595.595.595h1.879a4 4 0 0 1 .525.027l-.158-.021a3.2 3.2 0 0 1 .812.22l-.143-.059a3.3 3.3 0 0 1 .71.416l-.12-.094a3.3 3.3 0 0 1 .565.565l-.094-.12a3.3 3.3 0 0 1 .416.71l-.059-.143a3.2 3.2 0 0 1 .22.812l-.021-.158a3.2 3.2 0 0 1 0 .825l.021-.157a3.2 3.2 0 0 1-.22.812l.059-.143a3.3 3.3 0 0 1-.416.71l.094-.12a3.3 3.3 0 0 1-.565.565l.12-.094a3.2 3.2 0 0 1-.71.416l.143-.059q-.391.163-.812.22l.158-.021c-.265.034-.531.027-.797.027H8.971a.604.604 0 0 0-.595.595v.415a.63.63 0 0 0 .204.458l.285.265 1.244 1.156 1.65 1.535 1.486 1.382.736.685a.64.64 0 0 0 .431.183.6.6 0 0 0 .421-.174.6.6 0 0 0 .174-.421.6.6 0 0 0-.175-.416z"/></mask><path fill="#444" d="m14.832 18.489-.541-.504-1.3-1.21-1.568-1.458-1.36-1.265-.661-.615.165.412v-.425l-.595.595h.867l.895-.003c1.318-.061 2.56-.822 3.173-1.999a3.76 3.76 0 0 0 .434-1.922 3.76 3.76 0 0 0-.593-1.859 3.8 3.8 0 0 0-1.422-1.302 3.8 3.8 0 0 0-1.749-.431H8.595c-.311 0-.609.273-.595.595s.262.595.595.595h1.879a4 4 0 0 1 .525.027l-.158-.021a3.2 3.2 0 0 1 .812.22l-.143-.059a3.3 3.3 0 0 1 .71.416l-.12-.094a3.3 3.3 0 0 1 .565.565l-.094-.12a3.3 3.3 0 0 1 .416.71l-.059-.143a3.2 3.2 0 0 1 .22.812l-.021-.158a3.2 3.2 0 0 1 0 .825l.021-.157a3.2 3.2 0 0 1-.22.812l.059-.143a3.3 3.3 0 0 1-.416.71l.094-.12a3.3 3.3 0 0 1-.565.565l.12-.094a3.2 3.2 0 0 1-.71.416l.143-.059q-.391.163-.812.22l.158-.021c-.265.034-.531.027-.797.027H8.971a.604.604 0 0 0-.595.595v.415a.63.63 0 0 0 .204.458l.285.265 1.244 1.156 1.65 1.535 1.486 1.382.736.685a.64.64 0 0 0 .431.183.6.6 0 0 0 .421-.174.6.6 0 0 0 .174-.421.6.6 0 0 0-.175-.416z"/><path fill="#444" d="m14.832 18.489.171-.183zm-.541-.504.171-.183v-.001l-.17.183zm-1.3-1.21-.17.183zm-1.568-1.458-.17.183zm-1.36-1.265-.171.183zm-.661-.615-.177.177.01.009zm-.009-.009.177-.177-.408.273zm.174.421-.231.096.481-.096zm0-.425h.25v-.604l-.427.427zm-.595.595-.177-.177-.427.427h.604zm1.761-.003.011.25-.012-.25zm3.173-1.999-.221-.116zm.434-1.922.25-.013zm-.593-1.859.209-.137zm-1.422-1.302-.115.222h.001zm-1.749-.431.001-.25h-.001zm-2.574.595.25-.012zM11 7.719l-.032.248.067-.495zm-.158-.021.028-.248-.061.496zm.812.22-.094.232.19-.462zm-.143-.059.094-.232-.192.462zm.71.416-.152.198.306-.396-.153.197zm-.12-.094.153-.197-.307.394zm.565.565-.197.154.394-.307zm-.094-.12.197-.153-.396.306.198-.152zm.416.71-.23.098.461-.192-.232.094zm-.059-.143.231-.096-.462.19zm.22.812-.248.035.495-.068zm-.021-.158.248-.032-.496.061zm0 .825-.248-.032.495.068-.248-.035zm.021-.157.248.028-.496-.061zm-.22.812-.232-.094.462.19-.231-.096zm.059-.143.232.094-.461-.192zm-.416.71-.198-.152.396.306zm.094-.12.197.153-.394-.308.197.154zm-.565.565-.154-.197.307.394zm.12-.094.153.197-.306-.396.152.198zm-.71.416-.098-.23.192.462zm.143-.059.096.231-.19-.462zm-.812.22-.035-.247.068.495zm.158-.021.032.248-.06-.496zm-2.622 1.036.25-.004v-.001zm.204.458-.17.183.001.001zm.285.265.17-.183-.001-.001zm1.244 1.156.17-.183zm1.65 1.535-.17.183zm1.486 1.382.171-.183zm.736.685.177-.177-.008-.007zm.01.009-.177.177.008.007zm.841 0 .183.17.001-.001zm.174-.421.25-.012v-.003zm-.005-.599-.271-.252-.27-.252-.341.365.271.252.27.252.341-.366zm-.542-.504-.65-.605-.651-.605-.34.366.65.605.651.605zm-1.301-1.21-.784-.729-.784-.729-.34.366.784.729.784.729zm-1.568-1.458-1.36-1.265-.34.366 1.36 1.265zm-1.36-1.265-.665-.619-.333.373.658.612zm-.655-.609-.362.345zm-.417.264.087.21.087.211.462-.192-.087-.21-.087-.211zm.655.325v-.419l-.5-.011v.419zm-.427-.602-.019.019-.019.019-.019.019-.019.018-.019.019-.014.014-.042.042-.074.074-.019.019-.015.015-.041.041-.019.019-.019.019-.015.015-.022.022-.037.037-.037.037-.037.037-.019.019-.019.019-.019.018-.014.014-.023.023-.016.016.351.356.019-.018.016-.016.021-.021.019-.019.019-.019.014-.014.042-.042.074-.074.019-.019.015-.015.041-.041.019-.019.019-.019.015-.015.022-.022.037-.037.037-.037.012-.012.016-.016.016-.016.03-.03.074-.074-.354-.354zm-.418 1.021h.84l.014-.5h-.84zm.867 0 .906-.003-.023-.5-.884.003zm.906-.003c1.404-.065 2.727-.874 3.383-2.133l-.443-.231c-.571 1.095-1.73 1.808-2.963 1.865zm3.383-2.133a4 4 0 0 0 .462-2.05l-.499.026a3.5 3.5 0 0 1-.406 1.793zm.462-2.051a4 4 0 0 0-.634-1.983l-.418.274a3.5 3.5 0 0 1 .553 1.735zm-.634-1.984a4.06 4.06 0 0 0-1.517-1.387l-.229.445c.536.275.994.708 1.328 1.217zm-1.517-1.387a4.1 4.1 0 0 0-1.864-.459l-.001.5c.57.001 1.127.14 1.635.403zm-1.864-.459H8.682l-.007.5h1.892l.008-.5zm-1.919 0h-.06l-.001.5h.06zm-.061 0c-.435 0-.867.375-.844.856l.499-.023c-.007-.161.158-.333.345-.333zm-.844.856c.02.438.361.833.844.833v-.5c-.182 0-.335-.149-.345-.356zm.844.833h1.87l.007-.5H8.602l-.007.5zm1.879 0a4 4 0 0 1 .493.025l.064-.496a4 4 0 0 0-.556-.029zm.56-.471-.164-.022-.057.497.151.02zm-.226.474q.387.052.748.203l.192-.461a3.5 3.5 0 0 0-.875-.237l-.066.496zm.939-.259-.068-.028-.074-.031-.188.463.068.028.075.031zm-.335.402q.353.15.656.384l.305-.396a3.5 3.5 0 0 0-.765-.448zm.962-.011-.06-.047-.06-.047-.307.395.06.047.06.047zm-.428.301a3 3 0 0 1 .522.522l.394-.308a3.5 3.5 0 0 0-.608-.608zm.916.214-.047-.06-.047-.06-.395.307.047.06.047.06zm-.489.185q.233.304.385.656l.46-.196a3.5 3.5 0 0 0-.448-.765zm.846.464-.031-.074-.028-.068-.463.188.031.074.028.068zm-.522.048a3 3 0 0 1 .203.748l.496-.066a3.4 3.4 0 0 0-.237-.875l-.462.192zm.698.68-.02-.151-.497.057.022.165zm-.516-.09a3 3 0 0 1 0 .76l.496.065a3.4 3.4 0 0 0 0-.89zm.495.828.022-.165-.497-.057-.02.151zm-.474-.226a3 3 0 0 1-.203.748l.462.193q.176-.421.237-.875zm.259.939.028-.068.031-.074-.463-.188-.028.068-.031.074zm-.402-.335a3 3 0 0 1-.385.656l.396.305a3.5 3.5 0 0 0 .448-.765l-.46-.196zm.011.962.047-.06.047-.06-.395-.307-.047.06-.047.06zm-.301-.428a3 3 0 0 1-.522.522l.308.394a3.6 3.6 0 0 0 .608-.608zm-.214.916.06-.047.06-.047-.307-.395-.06.047-.06.047zm-.185-.489a3 3 0 0 1-.656.384l.196.46a3.5 3.5 0 0 0 .765-.448zm-.464.846.074-.031.068-.028-.188-.463-.075.031-.068.028.188.463zm-.048-.522q-.361.151-.748.203l.066.496a3.5 3.5 0 0 0 .875-.237zm-.68.698.151-.02-.057-.497-.165.022zm.09-.516c-.244.032-.488.025-.765.025v.5c.256 0 .544.008.829-.029zm-.765.025h-.966l-.012.5h.968l.012-.5zm-.984 0h-.24l-.004.5h.24zm-.247 0a.853.853 0 0 0-.845.845h.5c0-.184.161-.345.345-.345zm-.845.845v.42l.5-.011v-.409zm0 .419a.89.89 0 0 0 .283.637l.341-.366a.39.39 0 0 1-.124-.279zm.284.637.142.132.143.133.339-.368-.142-.132-.143-.133zm.285.264.622.578.622.578.34-.367-.622-.578-.622-.578-.34.366zm1.244 1.156 1.65 1.535.341-.366-1.65-1.536-.34.366zm1.65 1.535.743.691.743.691.341-.366-.743-.691-.743-.691zm1.486 1.382.737.687.338-.369-.734-.684-.341.365zm.73.679.018.017.346-.361-.018-.017zm.018.016c.152.14.358.24.59.24v-.5a.37.37 0 0 1-.251-.108zm.59.24a.86.86 0 0 0 .604-.253l-.366-.341a.36.36 0 0 1-.238.094zm.604-.255a.85.85 0 0 0 .24-.602l-.499.023c.003.07-.032.157-.108.24zm.24-.605a.86.86 0 0 0-.254-.584l-.342.365c.054.05.09.138.097.248l.499-.03z" mask="url(#a)"/><mask id="b" width="11" height="3" x="7" y="5.5" fill="#000" maskUnits="userSpaceOnUse"><path fill="#fff" d="M7 5.5h11v3H7z"/><path d="M8.595 7.691h7.872c.324 0 .623-.273.608-.595s-.262-.595-.594-.595H9.566c-.32 0-.639-.004-.957 0-.324 0-.623.273-.608.595s.262.595.595.595z"/></mask><path fill="#444" d="M8.595 7.691h7.872c.324 0 .623-.273.608-.595s-.262-.595-.594-.595H9.566c-.32 0-.639-.004-.957 0-.324 0-.623.273-.608.595s.262.595.595.595z"/><path fill="#444" d="M16.467 7.691v-.25h-.003zm.608-.595-.25.012zm-8.466-.595v.25h.004zm-.608.595.25-.012zm.595.845h.756l.012-.5h-.753l-.012.5zm.785 0h1.87l.007-.5h-1.87zm1.886 0h2.244l.009-.5h-2.244zm2.273 0h1.955l.008-.5h-1.955zm1.971 0h.961l-.007-.5c-.316.004-.629 0-.954 0zm.957 0 .013-.5zm.013 0c.435 0 .866-.375.844-.856l-.5.023c.007.161-.158.333-.345.333zm.844-.856c-.02-.438-.361-.833-.844-.833v.5c.182 0 .335.149.345.356l.5-.023zm-.844-.833h-.758l-.012.5h.757zm-.785 0h-1.87l-.007.5h1.87zm-1.886 0h-2.244l-.009.5h2.244zm-2.273 0H9.582l-.008.5h1.955zm-1.971 0c-.315 0-.641-.004-.961 0l.007.5h.954zm-.957 0-.013.5zm-.013 0c-.435 0-.867.375-.844.856l.499-.023c-.007-.161.158-.333.345-.333zm-.844.856c.02.438.361.833.844.833v-.5c-.182 0-.335-.149-.345-.356z" mask="url(#b)"/><mask id="c" width="11" height="3" x="7" y="8.662" fill="#000" maskUnits="userSpaceOnUse"><path fill="#fff" d="M7 8.662h11v3H7z"/><path d="M8.595 10.853h7.872c.324 0 .623-.274.608-.595s-.262-.594-.594-.594H9.566c-.32 0-.639-.004-.957 0-.324 0-.623.273-.608.595s.262.595.595.595z"/></mask><path fill="#444" d="M8.595 10.853h7.872c.324 0 .623-.274.608-.595s-.262-.594-.594-.594H9.566c-.32 0-.639-.004-.957 0-.324 0-.623.273-.608.595s.262.595.595.595z"/><path fill="#444" d="M16.467 10.853v-.25h-.003zm.608-.595-.25.011.25-.012zm-8.466-.594v.25h.004zm-.013 1.439h.756l.012-.5h-.753l-.012.5zm.785 0h1.87l.007-.5h-1.87zm1.886 0h2.244l.009-.5h-2.244zm2.273 0h1.955l.008-.5h-1.955zm1.971 0h.961l-.007-.5h-.954zm.957 0 .013-.5zm.013 0c.435 0 .866-.375.844-.856l-.5.023c.007.161-.158.333-.345.333zm.844-.856c-.02-.438-.361-.833-.844-.833v.5c.182 0 .335.149.345.356l.5-.023zm-.844-.833h-.758l-.012.5h.757zm-.785 0h-1.87l-.007.5h1.87zm-1.886 0h-2.244l-.009.5h2.244zm-2.273 0H9.582l-.008.5h1.955zm-1.971 0c-.315 0-.641-.004-.961 0l.007.5h.954zm-.957 0-.013.5zm-.013 0c-.435 0-.867.375-.844.856l.499-.023c-.007-.161.158-.333.345-.333zm-.844.856c.02.436.36.833.844.833v-.5c-.182 0-.335-.15-.345-.356z" mask="url(#c)"/></svg>