<svg xmlns="http://www.w3.org/2000/svg" width="24" height="25" fill="none" stroke="#444" stroke-width="1.5" xmlns:v="https://vecta.io/nano"><g stroke-linecap="round" stroke-linejoin="round"><path d="M12.334 14.334h.944c1.039 0 1.889-.825 1.889-1.833V3.334h-8.5c-1.417 0-2.654.761-3.296 1.879"/><path d="M2.891 17.084c0 1.522 1.266 2.75 2.833 2.75h.944c0-1.008.85-1.833 1.889-1.833s1.889.825 1.889 1.833h3.778c0-1.008.85-1.833 1.889-1.833s1.889.825 1.889 1.833h.945c1.568 0 2.833-1.228 2.833-2.75v-2.75h-2.833c-.52 0-.945-.413-.945-.917v-2.75c0-.504.425-.917.945-.917h1.218L18.55 7.009c-.34-.568-.963-.926-1.643-.926h-1.738V12.5c0 1.008-.85 1.833-1.889 1.833h-.944"/></g><path d="M8.557 21.667c1.043 0 1.889-.821 1.889-1.833S9.6 18 8.557 18s-1.889.821-1.889 1.833.846 1.833 1.889 1.833zm7.553 0c1.043 0 1.889-.821 1.889-1.833S17.153 18 16.11 18s-1.889.821-1.889 1.833.846 1.833 1.889 1.833zm5.67-9.167v1.833h-2.833c-.519 0-.944-.412-.944-.917v-2.75c0-.504.425-.917.944-.917h1.218l1.615 2.75z" stroke-linejoin="round"/><path d="M2.891 8.834h5.667m-5.667 2.75h3.778m-3.778 2.75H4.78" stroke-linejoin="round" stroke-linecap="round"/></svg>