<svg xmlns="http://www.w3.org/2000/svg" width="24" height="25" fill="none" xmlns:v="https://vecta.io/nano"><g clip-path="url(#A)" stroke="#444" stroke-width="1.5" stroke-linejoin="round"><path d="M18.139 22.12c-.88.26-1.92.38-3.14.38h-6c-1.22 0-2.26-.12-3.14-.38.22-2.6 2.89-4.65 6.14-4.65s5.92 2.05 6.14 4.65z"/><path d="M22 9.5v6c0 3.78-1.14 5.85-3.86 6.62-.88.26-1.92.38-3.14.38H9c-1.22 0-2.26-.12-3.14-.38C3.14 21.35 2 19.28 2 15.5v-6c0-5 2-7 7-7h6c5 0 7 2 7 7z"/><path d="M15.58 11.08c0 1.98-1.6 3.59-3.58 3.59s-3.58-1.61-3.58-3.59S10.02 7.5 12 7.5s3.58 1.6 3.58 3.58z"/></g><defs><clipPath id="A"><path fill="#fff" transform="translate(0 .5)" d="M0 0h24v24H0z"/></clipPath></defs></svg>